<?xml version="1.0" encoding="UTF-8"?>
<svg width="24px" height="24px" viewBox="0 0 24 24" version="1.1" xmlns="http://www.w3.org/2000/svg" xmlns:xlink="http://www.w3.org/1999/xlink">
    <title>Group</title>
    <g id="Page-5" stroke="none" stroke-width="1" fill="none" fill-rule="evenodd">
        <g id="Group">
            <polygon id="Path" points="0 0 24 0 24 24 0 24"></polygon>
            <path d="M11.106,2.553 C11.2755612,2.2146851 11.6215717,2.00106696 12,2.00106696 C12.3784283,2.00106696 12.7244388,2.2146851 12.894,2.553 L15.745,8.254 L21.447,11.106 C21.7654493,11.2651472 21.9752777,11.5815944 21.9979333,11.9368753 C22.0205889,12.2921561 21.852655,12.6326925 21.557,12.831 L21.447,12.894 L15.745,15.745 L12.895,21.447 C12.7359991,21.7659185 12.4192966,21.9761259 12.0636611,21.998791 C11.7080256,22.021456 11.3672002,21.8531537 11.169,21.557 L11.106,21.447 L8.254,15.745 L2.553,12.895 C2.23408147,12.7359991 2.0238741,12.4192966 2.00120903,12.0636611 C1.97854396,11.7080256 2.14684631,11.3672002 2.443,11.169 L2.553,11.106 L8.254,8.254 L11.106,2.553 Z" id="Path" fill="#000000" fill-rule="nonzero"></path>
        </g>
    </g>
</svg>